<?xml version="1.0" encoding="UTF-8" standalone="no"?>
<svg
   xmlns:dc="http://purl.org/dc/elements/1.1/"
   xmlns:cc="http://creativecommons.org/ns#"
   xmlns:rdf="http://www.w3.org/1999/02/22-rdf-syntax-ns#"
   xmlns:svg="http://www.w3.org/2000/svg"
   xmlns="http://www.w3.org/2000/svg"
   viewBox="0 0 838.47626 145.02933"
   height="145.02933"
   width="838.47626"
   xml:space="preserve"
   id="svg2"
   version="1.1"><metadata
     id="metadata8"><rdf:RDF><cc:Work
         rdf:about=""><dc:format>image/svg+xml</dc:format><dc:type
           rdf:resource="http://purl.org/dc/dcmitype/StillImage" /></cc:Work></rdf:RDF></metadata><defs
     id="defs6"><clipPath
       id="clipPath14"
       clipPathUnits="userSpaceOnUse"><path
         id="path12"
         d="M 0,0 H 792 V 612 H 0 Z" /></clipPath><clipPath
       id="clipPath52"
       clipPathUnits="userSpaceOnUse"><path
         id="path50"
         d="M 0,0 H 792 V 612 H 0 Z" /></clipPath><clipPath
       id="clipPath64"
       clipPathUnits="userSpaceOnUse"><path
         id="path62"
         d="M 0,0 H 792 V 612 H 0 Z" /></clipPath><clipPath
       id="clipPath76"
       clipPathUnits="userSpaceOnUse"><path
         id="path74"
         d="M 0,0 H 792 V 612 H 0 Z" /></clipPath><clipPath
       id="clipPath88"
       clipPathUnits="userSpaceOnUse"><path
         id="path86"
         d="M 0,0 H 792 V 612 H 0 Z" /></clipPath><clipPath
       id="clipPath130"
       clipPathUnits="userSpaceOnUse"><path
         id="path128"
         d="m 508.5,524.94 h 128.04 v 11.88 H 508.5 Z" /></clipPath><clipPath
       id="clipPath142"
       clipPathUnits="userSpaceOnUse"><path
         id="path140"
         d="m 508.5,524.94 h 128.04 v 11.88 H 508.5 Z" /></clipPath><clipPath
       id="clipPath168"
       clipPathUnits="userSpaceOnUse"><path
         id="path166"
         d="m 257.46,501.42 h 48.06 v 21.78 h -48.06 z" /></clipPath><clipPath
       id="clipPath180"
       clipPathUnits="userSpaceOnUse"><path
         id="path178"
         d="m 257.46,501.42 h 48.06 v 21.78 h -48.06 z" /></clipPath><clipPath
       id="clipPath192"
       clipPathUnits="userSpaceOnUse"><path
         id="path190"
         d="m 257.46,501.42 h 48.06 v 21.78 h -48.06 z" /></clipPath><clipPath
       id="clipPath204"
       clipPathUnits="userSpaceOnUse"><path
         id="path202"
         d="m 257.46,501.42 h 48.06 v 21.78 h -48.06 z" /></clipPath><clipPath
       id="clipPath216"
       clipPathUnits="userSpaceOnUse"><path
         id="path214"
         d="m 358.38,500.88 h 65.4 v 21.721 h -65.4 z" /></clipPath><clipPath
       id="clipPath228"
       clipPathUnits="userSpaceOnUse"><path
         id="path226"
         d="m 358.38,500.88 h 65.4 v 21.721 h -65.4 z" /></clipPath><clipPath
       id="clipPath240"
       clipPathUnits="userSpaceOnUse"><path
         id="path238"
         d="m 358.38,500.88 h 65.4 v 21.721 h -65.4 z" /></clipPath><clipPath
       id="clipPath250"
       clipPathUnits="userSpaceOnUse"><path
         id="path248"
         d="m 213.78,591.3 h 53.941 v 12.36 H 213.78 Z" /></clipPath><clipPath
       id="clipPath262"
       clipPathUnits="userSpaceOnUse"><path
         id="path260"
         d="m 213.78,591.3 h 53.941 v 12.36 H 213.78 Z" /></clipPath><clipPath
       id="clipPath274"
       clipPathUnits="userSpaceOnUse"><path
         id="path272"
         d="m 213.78,591.3 h 53.941 v 12.36 H 213.78 Z" /></clipPath><clipPath
       id="clipPath284"
       clipPathUnits="userSpaceOnUse"><path
         id="path282"
         d="m 268.26,590.7 h 202.559 v 12.84 H 268.26 Z" /></clipPath><clipPath
       id="clipPath296"
       clipPathUnits="userSpaceOnUse"><path
         id="path294"
         d="m 268.26,590.7 h 202.559 v 12.84 H 268.26 Z" /></clipPath><clipPath
       id="clipPath308"
       clipPathUnits="userSpaceOnUse"><path
         id="path306"
         d="m 268.26,590.7 h 202.559 v 12.84 H 268.26 Z" /></clipPath><clipPath
       id="clipPath316"
       clipPathUnits="userSpaceOnUse"><path
         id="path314"
         d="m 268.26,590.7 h 202.559 v 12.84 H 268.26 Z" /></clipPath><clipPath
       id="clipPath328"
       clipPathUnits="userSpaceOnUse"><path
         id="path326"
         d="m 268.26,590.7 h 202.559 v 12.84 H 268.26 Z" /></clipPath><clipPath
       id="clipPath336"
       clipPathUnits="userSpaceOnUse"><path
         id="path334"
         d="m 268.26,590.7 h 202.559 v 12.84 H 268.26 Z" /></clipPath><clipPath
       id="clipPath348"
       clipPathUnits="userSpaceOnUse"><path
         id="path346"
         d="m 268.26,590.7 h 202.559 v 12.84 H 268.26 Z" /></clipPath><clipPath
       id="clipPath356"
       clipPathUnits="userSpaceOnUse"><path
         id="path354"
         d="M 0,0 H 792 V 612 H 0 Z" /></clipPath><clipPath
       id="clipPath370"
       clipPathUnits="userSpaceOnUse"><path
         id="path368"
         d="m 70.26,531.96 h 93 v 12.78 h -93 z" /></clipPath><clipPath
       id="clipPath382"
       clipPathUnits="userSpaceOnUse"><path
         id="path380"
         d="m 70.26,531.96 h 93 v 12.78 h -93 z" /></clipPath></defs><g
     clip-path="url(#clipPath14)"
     transform="matrix(1.3333333,0,0,-1.3333333,-45.881067,808.46667)"
     id="g10"><text
       id="text36"
       style="font-variant:normal;font-weight:normal;font-stretch:normal;font-size:10.97999954px;font-family:Consolas;-inkscape-font-specification:Consolas;writing-mode:lr-tb;fill:#000000;fill-opacity:1;fill-rule:nonzero;stroke:none"
       transform="matrix(1,0,0,-1,36,565.86)"><tspan
         id="tspan16"
         y="0"
         x="0 6.0609598 12.12192 18.18288 24.243839 30.3048 36.365761 42.365231 48.426193 54.487152 60.486626 66.547585 72.608543 78.669502 84.730461 90.791428 96.852386 102.85185 108.91282 114.97378 120.97325 127.03421 133.09517 139.15613 145.21709 151.27805 157.339 163.33958">https://api.census.gov/data/</tspan><tspan
         id="tspan18"
         y="0"
         x="169.40054 175.4615 181.46097 187.52193 193.58289 199.64384 205.7048 211.76578 217.82674 223.8273 229.88826">2020/dec/dp</tspan><tspan
         id="tspan20"
         y="0"
         x="235.94922">?</tspan><tspan
         id="tspan22"
         y="0"
         x="241.92233 247.98331 254.04427 260.10522 266.16617 272.22714 278.28809 284.28757">get=NAME</tspan><tspan
         id="tspan24"
         y="0"
         x="290.34854">&amp;</tspan><tspan
         id="tspan26"
         y="0"
         x="296.40509 302.40457 308.46555 314.52649 320.58746 326.64841 332.70938 338.77032 344.7709">DP1_0001C</tspan><tspan
         id="tspan28"
         y="0"
         x="350.83185">&amp;</tspan><tspan
         id="tspan30"
         y="0"
         x="356.88293 362.88242 368.94336 375.00433 381.06528 387.12625 393.18723 399.24817 405.24875 411.30969 417.37067">for=state:*</tspan><tspan
         id="tspan32"
         y="0"
         x="423.36685">&amp;</tspan><tspan
         id="tspan34"
         y="0"
         x="429.4278 435.48877 441.54971 447.61069 453.67163 459.7326 465.73209 471.79303 477.854 483.85455 489.91553 495.97647 502.03745 508.09839 514.15936 520.22034 526.21979 532.28076 538.34174 544.34119 550.40216 556.46313 562.52405 568.58502 574.646 580.70697 586.70642 592.7674 598.82831 604.82782 610.88879 616.94971 622.92834">key=stringofcharactersandnumbers </tspan></text>
<g
       transform="translate(274.5,507.5001)"
       id="g38"><path
         id="path40"
         style="fill:none;stroke:#7e5df3;stroke-width:0.75;stroke-linecap:round;stroke-linejoin:miter;stroke-miterlimit:8;stroke-dasharray:none;stroke-opacity:1"
         d="M 0,0 V 43.6" /></g><g
       transform="translate(272.4997,550.1002)"
       id="g42"><path
         id="path44"
         style="fill:#7e5df3;fill-opacity:1;fill-rule:evenodd;stroke:none"
         d="M 0,0 2,6 4,0 Z" /></g><g
       id="g46"><g
         clip-path="url(#clipPath52)"
         id="g48"><g
           transform="translate(324.45,581.5)"
           id="g54"><path
             id="path56"
             style="fill:none;stroke:#ed7d31;stroke-width:0.75;stroke-linecap:butt;stroke-linejoin:miter;stroke-miterlimit:8;stroke-dasharray:none;stroke-opacity:1"
             d="M 0,0 C 0,2.375 -0.16,4.3 -0.358,4.3 H -45.492 C -45.69,4.3 -45.85,2.375 -45.85,0" /></g></g></g><g
       id="g58"><g
         clip-path="url(#clipPath64)"
         id="g60"><g
           transform="translate(386.1498,581.25)"
           id="g66"><path
             id="path68"
             style="fill:none;stroke:#ed7d31;stroke-width:0.75;stroke-linecap:butt;stroke-linejoin:miter;stroke-miterlimit:8;stroke-dasharray:none;stroke-opacity:1"
             d="M 0,0 C 0,2.375 -0.16,4.3 -0.358,4.3 H -51.842 C -52.04,4.3 -52.2,2.375 -52.2,0" /></g></g></g><g
       id="g70"><g
         clip-path="url(#clipPath76)"
         id="g72"><g
           transform="translate(453.95,581.05)"
           id="g78"><path
             id="path80"
             style="fill:none;stroke:#ed7d31;stroke-width:0.75;stroke-linecap:butt;stroke-linejoin:miter;stroke-miterlimit:8;stroke-dasharray:none;stroke-opacity:1"
             d="M 0,0 C 0,2.375 -0.16,4.3 -0.358,4.3 H -58.242 C -58.44,4.3 -58.6,2.375 -58.6,0" /></g></g></g><g
       id="g82"><g
         clip-path="url(#clipPath88)"
         id="g84"><g
           transform="translate(270.0999,580.2)"
           id="g90"><path
             id="path92"
             style="fill:none;stroke:#f5af00;stroke-width:0.75;stroke-linecap:butt;stroke-linejoin:miter;stroke-miterlimit:8;stroke-dasharray:none;stroke-opacity:1"
             d="M 0,0 C 0,2.955 -0.2,5.35 -0.446,5.35 H -62.404 C -62.65,5.35 -62.85,2.955 -62.85,0" /></g></g></g><g
       transform="translate(357.8999,520.0001)"
       id="g94"><path
         id="path96"
         style="fill:none;stroke:#748fff;stroke-width:0.75;stroke-linecap:round;stroke-linejoin:miter;stroke-miterlimit:8;stroke-dasharray:none;stroke-opacity:1"
         d="M 0,0 -25.122,32.16" /></g><g
       transform="translate(331.8171,550.1404)"
       id="g98"><path
         id="path100"
         style="fill:#748fff;fill-opacity:1;fill-rule:evenodd;stroke:none"
         d="M 0,0 -2.117,5.96 3.152,2.462 Z" /></g><g
       transform="translate(389.1001,507.5999)"
       id="g102"><path
         id="path104"
         style="fill:none;stroke:#748fff;stroke-width:0.75;stroke-linecap:round;stroke-linejoin:miter;stroke-miterlimit:8;stroke-dasharray:none;stroke-opacity:1"
         d="M 0,0 V 43.6" /></g><g
       transform="translate(387.0997,550.2)"
       id="g106"><path
         id="path108"
         style="fill:#748fff;fill-opacity:1;fill-rule:evenodd;stroke:none"
         d="M 0,0 2,6 4,0 Z" /></g><g
       transform="translate(414.4499,516.8)"
       id="g110"><path
         id="path112"
         style="fill:none;stroke:#748fff;stroke-width:0.75;stroke-linecap:round;stroke-linejoin:miter;stroke-miterlimit:8;stroke-dasharray:none;stroke-opacity:1"
         d="M 0,0 39.594,38.036" /></g><g
       transform="translate(454.7088,552.7009)"
       id="g114"><path
         id="path116"
         style="fill:#748fff;fill-opacity:1;fill-rule:evenodd;stroke:none"
         d="M 0,0 2.941,5.599 -2.771,2.885 Z" /></g><path
       id="path118"
       style="fill:#f5af00;fill-opacity:0.39999402;fill-rule:evenodd;stroke:none"
       d="M 489.4,577.1 H 659.45 V 561.65 H 489.4 Z" /><path
       id="path120"
       style="fill:none;stroke:#000000;stroke-width:0.75;stroke-linecap:butt;stroke-linejoin:miter;stroke-miterlimit:8;stroke-dasharray:none;stroke-opacity:0.81961101"
       d="M 489.4,577.1 H 659.45 V 561.65 H 489.4 Z" /><path
       id="path122"
       style="fill:#ffffff;fill-opacity:1;fill-rule:evenodd;stroke:#000000;stroke-width:0.5;stroke-linecap:butt;stroke-linejoin:round;stroke-miterlimit:10;stroke-dasharray:none;stroke-opacity:1"
       d="M 508.25,540.65 H 636.8 V 521.1 H 508.25 Z" /><g
       id="g124"><g
         clip-path="url(#clipPath130)"
         id="g126"><text
           id="text134"
           style="font-variant:normal;font-weight:normal;font-stretch:normal;font-size:9px;font-family:Consolas;-inkscape-font-specification:Consolas;writing-mode:lr-tb;fill:#000000;fill-opacity:1;fill-rule:nonzero;stroke:none"
           transform="matrix(1,0,0,-1,515.7,528.54)"><tspan
             id="tspan132"
             y="0"
             x="0 4.9797001 9.9027004 14.8824 19.805401 24.785999 29.709 34.689602 39.612598 44.593201 49.516201 54.496799 59.4198 64.399498 69.322502 74.3022 79.225197 84.204903 89.125198 94.104897 99.027901 104.0076">Your API key goes here</tspan></text>
</g></g><g
       id="g136"><g
         clip-path="url(#clipPath142)"
         id="g138" /></g><g
       transform="translate(522.3,540.8005)"
       id="g144"><path
         id="path146"
         style="fill:none;stroke:#000000;stroke-width:0.5;stroke-linecap:round;stroke-linejoin:miter;stroke-miterlimit:8;stroke-dasharray:none;stroke-opacity:1"
         d="M 0,0 V 7.15" /></g><g
       transform="translate(522.2998,547.9505)"
       id="g148"><path
         id="path150"
         style="fill:#000000;fill-opacity:1;fill-rule:evenodd;stroke:none"
         d="M 0,0 -2,-2 0,4 2,-2 Z" /></g><g
       transform="translate(624.75,540.8502)"
       id="g152"><path
         id="path154"
         style="fill:none;stroke:#000000;stroke-width:0.5;stroke-linecap:round;stroke-linejoin:miter;stroke-miterlimit:8;stroke-dasharray:none;stroke-opacity:1"
         d="M 0,0 V 7.15" /></g><g
       transform="translate(624.7498,548.0002)"
       id="g156"><path
         id="path158"
         style="fill:#000000;fill-opacity:1;fill-rule:evenodd;stroke:none"
         d="M 0,0 -2,-2 0,4 2,-2 Z" /></g><path
       id="path160"
       style="fill:#ffffff;fill-opacity:1;fill-rule:evenodd;stroke:#ffffff;stroke-width:0.5;stroke-linecap:butt;stroke-linejoin:round;stroke-miterlimit:10;stroke-dasharray:none;stroke-opacity:1"
       d="m 257.2,527.051 h 48.6 v -29.45 h -48.6 z" /><g
       id="g162"><g
         clip-path="url(#clipPath168)"
         id="g164"><text
           id="text172"
           style="font-variant:normal;font-weight:normal;font-stretch:normal;font-size:9px;font-family:Consolas;-inkscape-font-specification:Consolas;writing-mode:lr-tb;fill:#7e5df3;fill-opacity:1;fill-rule:nonzero;stroke:none"
           transform="matrix(1,0,0,-1,264.66,514.92)"><tspan
             id="tspan170"
             y="0"
             x="0">q</tspan></text>
</g></g><g
       id="g174"><g
         clip-path="url(#clipPath180)"
         id="g176"><text
           id="text184"
           style="font-variant:normal;font-weight:normal;font-stretch:normal;font-size:9px;font-family:Consolas;-inkscape-font-specification:Consolas;writing-mode:lr-tb;fill:#7e5df3;fill-opacity:1;fill-rule:nonzero;stroke:none"
           transform="matrix(1,0,0,-1,269.64,514.92)"><tspan
             id="tspan182"
             y="0"
             x="0 4.9229999 9.9027004 14.8257 19.805401">uery </tspan></text>
</g></g><g
       id="g186"><g
         clip-path="url(#clipPath192)"
         id="g188"><text
           id="text196"
           style="font-variant:normal;font-weight:normal;font-stretch:normal;font-size:9px;font-family:Consolas;-inkscape-font-specification:Consolas;writing-mode:lr-tb;fill:#7e5df3;fill-opacity:1;fill-rule:nonzero;stroke:none"
           transform="matrix(1,0,0,-1,264.66,503.52)"><tspan
             id="tspan194"
             y="0"
             x="0 4.9797001 9.8999996 14.8797 19.799999 24.779699">string</tspan></text>
</g></g><g
       id="g198"><g
         clip-path="url(#clipPath204)"
         id="g200" /></g><path
       id="path206"
       style="fill:#ffffff;fill-opacity:1;fill-rule:evenodd;stroke:none"
       d="m 358.1,526.45 h 65.95 V 497 H 358.1 Z" /><path
       id="path208"
       style="fill:none;stroke:#ffffff;stroke-width:0.5;stroke-linecap:butt;stroke-linejoin:round;stroke-miterlimit:10;stroke-dasharray:none;stroke-opacity:1"
       d="m 358.1,526.45 h 65.95 V 497 H 358.1 Z" /><g
       id="g210"><g
         clip-path="url(#clipPath216)"
         id="g212"><text
           id="text220"
           style="font-variant:normal;font-weight:normal;font-stretch:normal;font-size:9px;font-family:Consolas;-inkscape-font-specification:Consolas;writing-mode:lr-tb;fill:#748fff;fill-opacity:1;fill-rule:nonzero;stroke:none"
           transform="matrix(1,0,0,-1,365.58,514.32)"><tspan
             id="tspan218"
             y="0"
             x="0 4.9797001 9.9027004 14.8824 19.805401 24.785999 29.709 34.689602 39.612598">separator</tspan></text>
</g></g><g
       id="g222"><g
         clip-path="url(#clipPath228)"
         id="g224"><text
           id="text232"
           style="font-variant:normal;font-weight:normal;font-stretch:normal;font-size:9px;font-family:Consolas;-inkscape-font-specification:Consolas;writing-mode:lr-tb;fill:#748fff;fill-opacity:1;fill-rule:nonzero;stroke:none"
           transform="matrix(1,0,0,-1,410.16,514.32)"><tspan
             id="tspan230"
             y="0"
             x="0">s</tspan></text>
</g></g><g
       id="g234"><g
         clip-path="url(#clipPath240)"
         id="g236" /></g><path
       id="path242"
       style="fill:none;stroke:#ffffff;stroke-width:0.5;stroke-linecap:butt;stroke-linejoin:round;stroke-miterlimit:10;stroke-dasharray:none;stroke-opacity:1"
       d="m 213.5,607.5 h 54.45 V 587.45 H 213.5 Z" /><g
       id="g244"><g
         clip-path="url(#clipPath250)"
         id="g246"><text
           id="text254"
           style="font-variant:normal;font-weight:normal;font-stretch:normal;font-size:9px;font-family:Consolas;-inkscape-font-specification:Consolas;writing-mode:lr-tb;fill:#f5af00;fill-opacity:1;fill-rule:nonzero;stroke:none"
           transform="matrix(1,0,0,-1,220.92,595.38)"><tspan
             id="tspan252"
             y="0"
             x="0 4.9797001 9.8999996 14.8797">Data</tspan></text>
</g></g><g
       id="g256"><g
         clip-path="url(#clipPath262)"
         id="g258"><text
           id="text266"
           style="font-variant:normal;font-weight:normal;font-stretch:normal;font-size:9px;font-family:Consolas;-inkscape-font-specification:Consolas;writing-mode:lr-tb;fill:#f5af00;fill-opacity:1;fill-rule:nonzero;stroke:none"
           transform="matrix(1,0,0,-1,240.72,595.38)"><tspan
             id="tspan264"
             y="0"
             x="0 4.9797001 9.9027004">set</tspan></text>
</g></g><g
       id="g268"><g
         clip-path="url(#clipPath274)"
         id="g270" /></g><path
       id="path276"
       style="fill:none;stroke:#ffffff;stroke-width:0.5;stroke-linecap:butt;stroke-linejoin:round;stroke-miterlimit:10;stroke-dasharray:none;stroke-opacity:1"
       d="M 268,607.4 H 471.05 V 586.85 H 268 Z" /><g
       id="g278"><g
         clip-path="url(#clipPath284)"
         id="g280"><text
           id="text288"
           style="font-variant:normal;font-weight:normal;font-stretch:normal;font-size:9px;font-family:Consolas;-inkscape-font-specification:Consolas;writing-mode:lr-tb;fill:#f05d00;fill-opacity:1;fill-rule:nonzero;stroke:none"
           transform="matrix(1,0,0,-1,275.46,595.26)"><tspan
             id="tspan286"
             y="0"
             x="0 4.9797001 9.8999996 14.8797 19.8027 24.7824 29.7027 34.6833 39.602699 44.583302 49.502701 54.483299 59.402699">Get function </tspan></text>
</g></g><g
       id="g290"><g
         clip-path="url(#clipPath296)"
         id="g292"><text
           id="text300"
           style="font-variant:normal;font-weight:normal;font-stretch:normal;font-size:9px;font-family:Consolas;-inkscape-font-specification:Consolas;writing-mode:lr-tb;fill:#f05d00;fill-opacity:1;fill-rule:nonzero;stroke:none"
           transform="matrix(1,0,0,-1,339.84,595.26)"><tspan
             id="tspan298"
             y="0"
             x="0 4.9203 9.8999996 14.8203 19.799999 24.720301 29.700001 34.6203 39.599998 44.522999 49.502701">followed by</tspan></text>
</g></g><g
       id="g302"><g
         clip-path="url(#clipPath308)"
         id="g304" /></g><g
       id="g310"><g
         clip-path="url(#clipPath316)"
         id="g312"><text
           id="text320"
           style="font-variant:normal;font-weight:normal;font-stretch:normal;font-size:9px;font-family:Consolas;-inkscape-font-specification:Consolas;writing-mode:lr-tb;fill:#f05d00;fill-opacity:1;fill-rule:nonzero;stroke:none"
           transform="matrix(1,0,0,-1,399.24,595.26)"><tspan
             id="tspan318"
             y="0"
             x="0 4.9229999 9.9027004 14.8257 19.805401 24.728399 29.708099 34.6311">variable</tspan></text>
</g></g><g
       id="g322"><g
         clip-path="url(#clipPath328)"
         id="g324" /></g><g
       id="g330"><g
         clip-path="url(#clipPath336)"
         id="g332"><text
           id="text340"
           style="font-variant:normal;font-weight:normal;font-stretch:normal;font-size:9px;font-family:Consolas;-inkscape-font-specification:Consolas;writing-mode:lr-tb;fill:#f05d00;fill-opacity:1;fill-rule:nonzero;stroke:none"
           transform="matrix(1,0,0,-1,443.76,595.26)"><tspan
             id="tspan338"
             y="0"
             x="0 4.9797001 9.8999996 14.8797">list</tspan></text>
</g></g><g
       id="g342"><g
         clip-path="url(#clipPath348)"
         id="g344" /></g><g
       id="g350"><g
         clip-path="url(#clipPath356)"
         id="g352"><g
           transform="translate(197.4499,556.5)"
           id="g358"><path
             id="path360"
             style="fill:none;stroke:#000000;stroke-width:0.75;stroke-linecap:butt;stroke-linejoin:miter;stroke-miterlimit:8;stroke-dasharray:none;stroke-opacity:1"
             d="m 0,0 c 0,-2.209 -0.149,-4 -0.333,-4 h -153.834 c -0.184,0 -0.333,1.791 -0.333,4" /></g></g></g><path
       id="path362"
       style="fill:none;stroke:#ffffff;stroke-width:0.5;stroke-linecap:butt;stroke-linejoin:round;stroke-miterlimit:10;stroke-dasharray:none;stroke-opacity:1"
       d="m 70,548.6 h 93.5 V 528.1 H 70 Z" /><g
       id="g364"><g
         clip-path="url(#clipPath370)"
         id="g366"><text
           id="text374"
           style="font-variant:normal;font-weight:normal;font-stretch:normal;font-size:9px;font-family:Consolas;-inkscape-font-specification:Consolas;writing-mode:lr-tb;fill:#000000;fill-opacity:1;fill-rule:nonzero;stroke:none"
           transform="matrix(1,0,0,-1,77.46,536.46)"><tspan
             id="tspan372"
             y="0"
             x="0 4.9797001 9.9027004 14.8824 19.805401 24.785999 29.709 34.689602 39.612598 44.593201 49.516201 54.495899 59.4189 64.398598 69.321602">Census Data API</tspan></text>
</g></g><g
       id="g376"><g
         clip-path="url(#clipPath382)"
         id="g378" /></g></g></svg>