<svg xmlns="http://www.w3.org/2000/svg" xmlns:xlink="http://www.w3.org/1999/xlink" version="1.1" width="629.8478" height="113.25101" viewBox="0 0 629.8478 113.25101">
<defs>
<clipPath id="clip_0">
<path transform="matrix(1,0,0,-1,-33.9752,610.258)" d="M33.9752 497.007H663.823V610.258H33.9752Z" fill-rule="evenodd"/>
</clipPath>
<clipPath id="clip_1">
<path transform="matrix(1,0,0,-1,-33.9752,610.258)" d="M0 0H792V612H0Z"/>
</clipPath>
<clipPath id="clip_2">
<path transform="matrix(1,0,0,-1,-33.9752,610.258)" d="M0 0H792V612H0Z"/>
</clipPath>
<clipPath id="clip_3">
<path transform="matrix(1,0,0,-1,-33.9752,610.258)" d="M0 0H792V612H0Z"/>
</clipPath>
<clipPath id="clip_4">
<path transform="matrix(1,0,0,-1,-33.9752,610.258)" d="M0 0H792V612H0Z"/>
</clipPath>
<clipPath id="clip_5">
<path transform="matrix(1,0,0,-1,-33.9752,610.258)" d="M508.5 524.94H636.54V536.82H508.5Z"/>
</clipPath>
<clipPath id="clip_6">
<path transform="matrix(1,0,0,-1,-33.9752,610.258)" d="M508.5 524.94H636.54V536.82H508.5Z"/>
</clipPath>
<clipPath id="clip_7">
<path transform="matrix(1,0,0,-1,-33.9752,610.258)" d="M257.46 501.42H305.52V523.2H257.46Z"/>
</clipPath>
<clipPath id="clip_8">
<path transform="matrix(1,0,0,-1,-33.9752,610.258)" d="M257.46 501.42H305.52V523.2H257.46Z"/>
</clipPath>
<clipPath id="clip_9">
<path transform="matrix(1,0,0,-1,-33.9752,610.258)" d="M257.46 501.42H305.52V523.2H257.46Z"/>
</clipPath>
<clipPath id="clip_10">
<path transform="matrix(1,0,0,-1,-33.9752,610.258)" d="M257.46 501.42H305.52V523.2H257.46Z"/>
</clipPath>
<clipPath id="clip_11">
<path transform="matrix(1,0,0,-1,-33.9752,610.258)" d="M358.38 500.88H423.78V522.601H358.38Z"/>
</clipPath>
<clipPath id="clip_12">
<path transform="matrix(1,0,0,-1,-33.9752,610.258)" d="M358.38 500.88H423.78V522.601H358.38Z"/>
</clipPath>
<clipPath id="clip_13">
<path transform="matrix(1,0,0,-1,-33.9752,610.258)" d="M358.38 500.88H423.78V522.601H358.38Z"/>
</clipPath>
<clipPath id="clip_14">
<path transform="matrix(1,0,0,-1,-33.9752,610.258)" d="M213.78 591.3H267.721V603.66H213.78Z"/>
</clipPath>
<clipPath id="clip_15">
<path transform="matrix(1,0,0,-1,-33.9752,610.258)" d="M213.78 591.3H267.721V603.66H213.78Z"/>
</clipPath>
<clipPath id="clip_16">
<path transform="matrix(1,0,0,-1,-33.9752,610.258)" d="M213.78 591.3H267.721V603.66H213.78Z"/>
</clipPath>
<clipPath id="clip_17">
<path transform="matrix(1,0,0,-1,-33.9752,610.258)" d="M268.26 590.7H470.81904V603.54006H268.26Z"/>
</clipPath>
<clipPath id="clip_18">
<path transform="matrix(1,0,0,-1,-33.9752,610.258)" d="M268.26 590.7H470.81904V603.54006H268.26Z"/>
</clipPath>
<clipPath id="clip_19">
<path transform="matrix(1,0,0,-1,-33.9752,610.258)" d="M268.26 590.7H470.81904V603.54006H268.26Z"/>
</clipPath>
<clipPath id="clip_20">
<path transform="matrix(1,0,0,-1,-33.9752,610.258)" d="M268.26 590.7H470.81904V603.54006H268.26Z"/>
</clipPath>
<clipPath id="clip_21">
<path transform="matrix(1,0,0,-1,-33.9752,610.258)" d="M268.26 590.7H470.81904V603.54006H268.26Z"/>
</clipPath>
<clipPath id="clip_22">
<path transform="matrix(1,0,0,-1,-33.9752,610.258)" d="M268.26 590.7H470.81904V603.54006H268.26Z"/>
</clipPath>
<clipPath id="clip_23">
<path transform="matrix(1,0,0,-1,-33.9752,610.258)" d="M268.26 590.7H470.81904V603.54006H268.26Z"/>
</clipPath>
<clipPath id="clip_24">
<path transform="matrix(1,0,0,-1,-33.9752,610.258)" d="M0 0H792V612H0Z"/>
</clipPath>
<clipPath id="clip_25">
<path transform="matrix(1,0,0,-1,-33.9752,610.258)" d="M70.26 531.96H163.26001V544.74008H70.26Z"/>
</clipPath>
<clipPath id="clip_26">
<path transform="matrix(1,0,0,-1,-33.9752,610.258)" d="M70.26 531.96H163.26001V544.74008H70.26Z"/>
</clipPath>
</defs>
<g>
<g clip-path="url(#clip_0)">
<text xml:space="preserve" transform="matrix(1 0 -0 1 -33.9752 610.258)" font-size="10.98" font-family="Consolas"><tspan y="-565.86" x="36 42.06096 48.121919 54.182878 60.243837 66.304798 72.36575 78.36523 84.426189 90.487148 96.48662 102.54758 108.608539 114.669498 120.73045 126.79141 132.85237 138.85184 144.9128 150.97376 156.97322 163.03418 169.09514 175.1561 181.21706 187.27802 193.33898 199.33954">https://api.census.gov/data/</tspan></text>
<text fill="#f5af00" xml:space="preserve" transform="matrix(1 0 -0 1 -33.9752 610.258)" font-size="10.98" font-family="Consolas"><tspan y="-565.86" x="205.4005 211.46146 217.46092 223.52188 229.58284 235.6438 241.70476 247.76572 253.82668 259.82725 265.8882">2020/dec/dp</tspan></text>
<text fill="#7e5df3" xml:space="preserve" transform="matrix(1 0 -0 1 -33.9752 610.258)" font-size="10.98" font-family="Consolas"><tspan y="-565.86" x="271.9492">?</tspan></text>
<text fill="#f05d00" xml:space="preserve" transform="matrix(1 0 -0 1 -33.9752 610.258)" font-size="10.98" font-family="Consolas"><tspan y="-565.86" x="277.92234 283.9833 290.04429 296.10527 302.16624 308.2272 314.28819 320.28767">get=NAME</tspan></text>
<text fill="#748fff" xml:space="preserve" transform="matrix(1 0 -0 1 -33.9752 610.258)" font-size="10.98" font-family="Consolas"><tspan y="-565.86" x="326.34864">&#x0026;</tspan></text>
<text fill="#f05d00" xml:space="preserve" transform="matrix(1 0 -0 1 -33.9752 610.258)" font-size="10.98" font-family="Consolas"><tspan y="-565.86" x="332.4051 338.40458 344.46556 350.52653 356.5875 362.64848 368.70945 374.77043 380.771">DP1_0001C</tspan></text>
<text fill="#748fff" xml:space="preserve" transform="matrix(1 0 -0 1 -33.9752 610.258)" font-size="10.98" font-family="Consolas"><tspan y="-565.86" x="386.83198">&#x0026;</tspan></text>
<text fill="#f05d00" xml:space="preserve" transform="matrix(1 0 -0 1 -33.9752 610.258)" font-size="10.98" font-family="Consolas"><tspan y="-565.86" x="392.88294 398.88243 404.9434 411.00437 417.06535 423.1263 429.1873 435.24827 441.24885 447.3098 453.3708">for=state:*</tspan></text>
<text fill="#748fff" xml:space="preserve" transform="matrix(1 0 -0 1 -33.9752 610.258)" font-size="10.98" font-family="Consolas"><tspan y="-565.86" x="459.36683">&#x0026;</tspan></text>
<text xml:space="preserve" transform="matrix(1 0 -0 1 -33.9752 610.258)" font-size="10.98" font-family="Consolas"><tspan y="-565.86" x="465.4278 471.48878 477.54975 483.61073 489.6717 495.73268 501.73216 507.79313 513.85409 519.8547 525.91567 531.9766 538.0376 544.0986 550.15957 556.2205 562.22006 568.281 574.342 580.3415 586.40249 592.46347 598.5244 604.5854 610.64639 616.70736 622.70687 628.7678 634.8288 640.8283 646.8893 652.95028 658.92837">key=stringofcharactersandnumbers </tspan></text>
<text xml:space="preserve" transform="matrix(1 0 -0 1 -33.9752 610.258)" font-size="10.98" font-family="Consolas"><tspan y="-543.9549" x="36.011049"> </tspan></text>
<text xml:space="preserve" transform="matrix(1 0 -0 1 -33.9752 610.258)" font-size="10.98" font-family="Consolas"><tspan y="-522.0498" x="36.011049"> </tspan></text>
<text xml:space="preserve" transform="matrix(1 0 -0 1 -33.9752 610.258)" font-size="10.98" font-family="Consolas"><tspan y="-500.1447" x="36.011049"> </tspan></text>
<text xml:space="preserve" transform="matrix(1 0 -0 1 -33.9752 610.258)" font-size="10.98" font-family="Consolas"><tspan y="-478.23963" x="36.011049"> </tspan></text>
<path transform="matrix(1,0,0,-1,240.5248,102.757907)" stroke-width=".75" stroke-linecap="round" stroke-miterlimit="8" stroke-linejoin="miter" fill="none" stroke="#7e5df3" d="M0 0V43.6"/>
<path transform="matrix(1,0,0,-1,238.52449,60.157777)" d="M0 0 2 6 4 0Z" fill="#7e5df3" fill-rule="evenodd"/>
<g clip-path="url(#clip_1)">
<path transform="matrix(1,0,0,-1,290.47483,28.757996)" stroke-width=".75" stroke-linecap="butt" stroke-miterlimit="8" stroke-linejoin="miter" fill="none" stroke="#ed7d31" d="M0 0C0 2.375-.16 4.3-.358 4.3H-45.492C-45.69 4.3-45.85 2.375-45.85 0"/>
</g>
<g clip-path="url(#clip_2)">
<path transform="matrix(1,0,0,-1,352.17463,29.007996)" stroke-width=".75" stroke-linecap="butt" stroke-miterlimit="8" stroke-linejoin="miter" fill="none" stroke="#ed7d31" d="M0 0C0 2.375-.16 4.3-.358 4.3H-51.842C-52.04 4.3-52.2 2.375-52.2 0"/>
</g>
<g clip-path="url(#clip_3)">
<path transform="matrix(1,0,0,-1,419.97483,29.208008)" stroke-width=".75" stroke-linecap="butt" stroke-miterlimit="8" stroke-linejoin="miter" fill="none" stroke="#ed7d31" d="M0 0C0 2.375-.16 4.3-.358 4.3H-58.242C-58.44 4.3-58.6 2.375-58.6 0"/>
</g>
<g clip-path="url(#clip_4)">
<path transform="matrix(1,0,0,-1,236.12471,30.057984)" stroke-width=".75" stroke-linecap="butt" stroke-miterlimit="8" stroke-linejoin="miter" fill="none" stroke="#f5af00" d="M0 0C0 2.955-.2 5.35-.446 5.35H-62.404C-62.65 5.35-62.85 2.955-62.85 0"/>
</g>
<path transform="matrix(1,0,0,-1,323.9247,90.25787)" stroke-width=".75" stroke-linecap="round" stroke-miterlimit="8" stroke-linejoin="miter" fill="none" stroke="#748fff" d="M0 0-25.122 32.16"/>
<path transform="matrix(1,0,0,-1,297.84193,60.117616)" d="M0 0-2.117 5.96 3.152 2.462Z" fill="#748fff" fill-rule="evenodd"/>
<path transform="matrix(1,0,0,-1,355.1249,102.65808)" stroke-width=".75" stroke-linecap="round" stroke-miterlimit="8" stroke-linejoin="miter" fill="none" stroke="#748fff" d="M0 0V43.6"/>
<path transform="matrix(1,0,0,-1,353.1245,60.057985)" d="M0 0 2 6 4 0Z" fill="#748fff" fill-rule="evenodd"/>
<path transform="matrix(1,0,0,-1,380.4747,93.45801)" stroke-width=".75" stroke-linecap="round" stroke-miterlimit="8" stroke-linejoin="miter" fill="none" stroke="#748fff" d="M0 0 39.594 38.036"/>
<path transform="matrix(1,0,0,-1,420.7336,57.557069)" d="M0 0 2.941 5.599-2.771 2.885Z" fill="#748fff" fill-rule="evenodd"/>
<path transform="matrix(1,0,0,-1,-33.9752,610.258)" d="M489.4 577.1H659.45V561.64999H489.4Z" fill="#f5af00" fill-opacity=".399994" fill-rule="evenodd"/>
<path transform="matrix(1,0,0,-1,-33.9752,610.258)" stroke-width=".75" stroke-linecap="butt" stroke-miterlimit="8" stroke-linejoin="miter" fill="none" stroke="#000000" stroke-opacity=".819611" d="M489.4 577.1H659.45V561.64999H489.4Z"/>
<path transform="matrix(1,0,0,-1,-33.9752,610.258)" d="M508.25 540.65H636.8V521.10006H508.25Z" fill="#ffffff" fill-rule="evenodd"/>
<path transform="matrix(1,0,0,-1,-33.9752,610.258)" stroke-width=".5" stroke-linecap="butt" stroke-linejoin="round" fill="none" stroke="#000000" d="M508.25 540.65H636.8V521.10006H508.25Z"/>
<g clip-path="url(#clip_5)">
<text xml:space="preserve" transform="matrix(1 0 -0 1 -33.9752 610.258)" font-size="9" font-family="Consolas"><tspan y="-528.54" x="515.7 520.6797 525.60269 530.58236 535.5053 540.4859 545.4089 550.38949 555.31246 560.293 565.216 570.1966 575.11959 580.09927 585.0222 590.0019 594.92489 599.90457 604.8248 609.8045 614.7275 619.70718">Your API key goes here</tspan></text>
</g>
<g clip-path="url(#clip_6)">
<text xml:space="preserve" transform="matrix(1 0 -0 1 -33.9752 610.258)" font-size="9" font-family="Consolas"><tspan y="-528.54" x="624.6"> </tspan></text>
</g>
<path transform="matrix(1,0,0,-1,488.3248,69.45752)" stroke-width=".5" stroke-linecap="round" stroke-miterlimit="8" stroke-linejoin="miter" fill="none" stroke="#000000" d="M0 0V7.15"/>
<path transform="matrix(1,0,0,-1,488.32463,62.307497)" d="M0 0-2-2 0 4 2-2Z" fill-rule="evenodd"/>
<path transform="matrix(1,0,0,-1,590.7748,69.407779)" stroke-width=".5" stroke-linecap="round" stroke-miterlimit="8" stroke-linejoin="miter" fill="none" stroke="#000000" d="M0 0V7.15"/>
<path transform="matrix(1,0,0,-1,590.7746,62.257814)" d="M0 0-2-2 0 4 2-2Z" fill-rule="evenodd"/>
<path transform="matrix(1,0,0,-1,-33.9752,610.258)" d="M257.2 527.051H305.80003V497.601H257.2Z" fill="#ffffff" fill-rule="evenodd"/>
<path transform="matrix(1,0,0,-1,-33.9752,610.258)" stroke-width=".5" stroke-linecap="butt" stroke-linejoin="round" fill="none" stroke="#ffffff" d="M257.2 527.051H305.80003V497.601H257.2Z"/>
<g clip-path="url(#clip_7)">
<text fill="#7e5df3" xml:space="preserve" transform="matrix(1 0 -0 1 -33.9752 610.258)" font-size="9" font-family="Consolas"><tspan y="-514.92" x="264.66">q</tspan></text>
</g>
<g clip-path="url(#clip_8)">
<text fill="#7e5df3" xml:space="preserve" transform="matrix(1 0 -0 1 -33.9752 610.258)" font-size="9" font-family="Consolas"><tspan y="-514.92" x="269.64 274.56303 279.54273 284.46574 289.44544">uery </tspan></text>
</g>
<g clip-path="url(#clip_9)">
<text fill="#7e5df3" xml:space="preserve" transform="matrix(1 0 -0 1 -33.9752 610.258)" font-size="9" font-family="Consolas"><tspan y="-503.52" x="264.66 269.6397 274.56 279.5397 284.46 289.4397">string</tspan></text>
</g>
<g clip-path="url(#clip_10)">
<text fill="#7e5df3" xml:space="preserve" transform="matrix(1 0 -0 1 -33.9752 610.258)" font-size="9" font-family="Consolas"><tspan y="-503.52" x="294.36"> </tspan></text>
</g>
<path transform="matrix(1,0,0,-1,-33.9752,610.258)" d="M358.1 526.45H424.05V497H358.1Z" fill="#ffffff" fill-rule="evenodd"/>
<path transform="matrix(1,0,0,-1,-33.9752,610.258)" stroke-width=".5" stroke-linecap="butt" stroke-linejoin="round" fill="none" stroke="#ffffff" d="M358.1 526.45H424.05V497H358.1Z"/>
<g clip-path="url(#clip_11)">
<text fill="#748fff" xml:space="preserve" transform="matrix(1 0 -0 1 -33.9752 610.258)" font-size="9" font-family="Consolas"><tspan y="-514.32" x="365.58 370.5597 375.4827 380.4624 385.3854 390.366 395.289 400.2696 405.1926">separator</tspan></text>
</g>
<g clip-path="url(#clip_12)">
<text fill="#748fff" xml:space="preserve" transform="matrix(1 0 -0 1 -33.9752 610.258)" font-size="9" font-family="Consolas"><tspan y="-514.32" x="410.16">s</tspan></text>
</g>
<g clip-path="url(#clip_13)">
<text fill="#748fff" xml:space="preserve" transform="matrix(1 0 -0 1 -33.9752 610.258)" font-size="9" font-family="Consolas"><tspan y="-514.32" x="415.08"> </tspan></text>
</g>
<path transform="matrix(1,0,0,-1,-33.9752,610.258)" stroke-width=".5" stroke-linecap="butt" stroke-linejoin="round" fill="none" stroke="#ffffff" d="M213.5 607.5H267.95V587.45H213.5Z"/>
<g clip-path="url(#clip_14)">
<text fill="#f5af00" xml:space="preserve" transform="matrix(1 0 -0 1 -33.9752 610.258)" font-size="9" font-family="Consolas"><tspan y="-595.38" x="220.92 225.8997 230.82 235.7997">Data</tspan></text>
</g>
<g clip-path="url(#clip_15)">
<text fill="#f5af00" xml:space="preserve" transform="matrix(1 0 -0 1 -33.9752 610.258)" font-size="9" font-family="Consolas"><tspan y="-595.38" x="240.72 245.6997 250.62271">set</tspan></text>
</g>
<g clip-path="url(#clip_16)">
<text fill="#f5af00" xml:space="preserve" transform="matrix(1 0 -0 1 -33.9752 610.258)" font-size="9" font-family="Consolas"><tspan y="-595.38" x="255.54"> </tspan></text>
</g>
<path transform="matrix(1,0,0,-1,-33.9752,610.258)" stroke-width=".5" stroke-linecap="butt" stroke-linejoin="round" fill="none" stroke="#ffffff" d="M268 607.4H471.05V586.85006H268Z"/>
<g clip-path="url(#clip_17)">
<text fill="#f05d00" xml:space="preserve" transform="matrix(1 0 -0 1 -33.9752 610.258)" font-size="9" font-family="Consolas"><tspan y="-595.26" x="275.46 280.4397 285.36 290.3397 295.2627 300.2424 305.1627 310.14329 315.06269 320.04328 324.96269 329.94328 334.86268">Get function </tspan></text>
</g>
<g clip-path="url(#clip_18)">
<text fill="#f05d00" xml:space="preserve" transform="matrix(1 0 -0 1 -33.9752 610.258)" font-size="9" font-family="Consolas"><tspan y="-595.26" x="339.84 344.76029 349.74 354.66029 359.63999 364.56028 369.53999 374.46028 379.43998 384.36299 389.34269">followed by</tspan></text>
</g>
<g clip-path="url(#clip_19)">
<text fill="#f05d00" xml:space="preserve" transform="matrix(1 0 -0 1 -33.9752 610.258)" font-size="9" font-family="Consolas"><tspan y="-595.26" x="394.26"> </tspan></text>
</g>
<g clip-path="url(#clip_20)">
<text fill="#f05d00" xml:space="preserve" transform="matrix(1 0 -0 1 -33.9752 610.258)" font-size="9" font-family="Consolas"><tspan y="-595.26" x="399.24 404.163 409.1427 414.0657 419.0454 423.9684 428.94813 433.87113">variable</tspan></text>
</g>
<g clip-path="url(#clip_21)">
<text fill="#f05d00" xml:space="preserve" transform="matrix(1 0 -0 1 -33.9752 610.258)" font-size="9" font-family="Consolas"><tspan y="-595.26" x="438.84"> </tspan></text>
</g>
<g clip-path="url(#clip_22)">
<text fill="#f05d00" xml:space="preserve" transform="matrix(1 0 -0 1 -33.9752 610.258)" font-size="9" font-family="Consolas"><tspan y="-595.26" x="443.76 448.73973 453.66 458.6397">list</tspan></text>
</g>
<g clip-path="url(#clip_23)">
<text fill="#f05d00" xml:space="preserve" transform="matrix(1 0 -0 1 -33.9752 610.258)" font-size="9" font-family="Consolas"><tspan y="-595.26" x="463.56"> </tspan></text>
</g>
<g clip-path="url(#clip_24)">
<path transform="matrix(1,0,0,-1,163.4747,53.757997)" stroke-width=".75" stroke-linecap="butt" stroke-miterlimit="8" stroke-linejoin="miter" fill="none" stroke="#000000" d="M0 0C0-2.209-.149-4-.333-4H-154.167C-154.351-4-154.5-2.209-154.5 0"/>
</g>
<path transform="matrix(1,0,0,-1,-33.9752,610.258)" stroke-width=".5" stroke-linecap="butt" stroke-linejoin="round" fill="none" stroke="#ffffff" d="M70 548.6H163.5V528.1H70Z"/>
<g clip-path="url(#clip_25)">
<text xml:space="preserve" transform="matrix(1 0 -0 1 -33.9752 610.258)" font-size="9" font-family="Consolas"><tspan y="-536.46" x="77.46 82.4397 87.36269 92.34239 97.26539 102.24599 107.16898 112.14958 117.07258 122.05318 126.97617 131.95587 136.87888 141.85858 146.78159">Census Data API</tspan></text>
</g>
<g clip-path="url(#clip_26)">
<text xml:space="preserve" transform="matrix(1 0 -0 1 -33.9752 610.258)" font-size="9" font-family="Consolas"><tspan y="-536.46" x="151.68"> </tspan></text>
</g>
</g>
</g>
</svg>
